# File created by Blade
# Date/Time:  Tue Jan 27 19:05:11 2015
#---------------------------------------------------------
:version 1.10
:name HOM
:units
  mass 1.0
  length 1.000000
  angle deg
:documentation
     Acclaim Skeleton File
:root
   axis xyz
   order TX TY TZ RX RY RZ
   position 0.000000 0.000000 0.000000
   orientation 0 0 0
:bonedata
   begin
      id 1
      name Spine_dum
      direction 0.000000 1.000000 0.000000
      length 5.195262
      axis 0.0 0.0 0.0 xyz
   end
   begin
      id 2
      name LeftUpLeg_dum
      direction 1.000000 0.000000 0.000000
      length 3.351363
      axis 0.0 0.0 0.0 xyz
   end
   begin
      id 3
      name RightUpLeg_dum
      direction -1.000000 0.000000 0.000000
      length 3.351363
      axis 0.0 0.0 0.0 xyz
   end
   begin
      id 4
      name Spine
      direction 0.000000 1.000000 0.000000
      length 0.000000
      axis 0.0 0.0 0.0 xyz
      dof rx ry rz
   end
   begin
      id 5
      name Spine_dum1
      direction 0.000000 1.000000 0.000000
      length 15.653875
      axis 0.0 0.0 0.0 xyz
   end
   begin
      id 6
      name Spine_dum2
      direction 0.000000 1.000000 0.000000
      length 10.329768
      axis 0.0 0.0 0.0 xyz
   end
   begin
      id 7
      name Spine_dum3
      direction 0.000000 1.000000 0.000000
      length 10.329768
      axis 0.0 0.0 0.0 xyz
   end
   begin
      id 8
      name Head
      direction 0.000000 1.000000 0.000000
      length 4.527550
      axis 0.0 0.0 0.0 xyz
      dof rx ry rz
   end
   begin
      id 9
      name LeftShoulder
      direction 1.000000 0.000000 0.000000
      length 6.996006
      axis 0.0 0.0 -90.0 xyz
      dof rx ry rz
   end
   begin
      id 10
      name LeftArm
      direction 1.000000 0.000000 0.000000
      length 10.209302
      axis 0.0 0.0 -90.0 xyz
      dof rx ry rz
   end
   begin
      id 11
      name LeftForeArm
      direction 1.000000 0.000000 0.000000
      length 8.563163
      axis 0.0 0.0 -90.0 xyz
      dof ry rz rx
   end
   begin
      id 12
      name LeftHand
      direction 0.000000 0.000000 0.000000
      length 0.000000
      axis 0.0 0.0 -90.0 xyz
      dof rx ry rz
   end
   begin
      id 13
      name LeftHand_dum1
      direction 0.000000 0.000000 0.000000
      length 0.000000
      axis 0.0 0.0 -90.0 xyz
   end
   begin
      id 14
      name LeftHand_dum2
      direction 1.000000 0.000000 0.000000
      length 3.937000
      axis 0.0 0.0 -90.0 xyz
   end
   begin
      id 15
      name LeftHandThumb1
      direction 0.000000 0.000000 1.000000
      length 3.937000
      axis 0.0 0.0 -90.0 xyz
      dof rx rz ry
   end
   begin
      id 16
      name RightShoulder
      direction -1.000000 0.000000 0.000000
      length 6.996006
      axis 0.0 0.0 90.0 xyz
      dof rx ry rz
   end
   begin
      id 17
      name RightArm
      direction -1.000000 0.000000 0.000000
      length 10.209302
      axis 0.0 0.0 90.0 xyz
      dof rx ry rz
   end
   begin
      id 18
      name RightForeArm
      direction -1.000000 0.000000 0.000000
      length 8.563163
      axis 0.0 0.0 90.0 xyz
      dof ry rz rx
   end
   begin
      id 19
      name RightHand
      direction 0.000000 0.000000 0.000000
      length 0.000000
      axis 0.0 0.0 90.0 xyz
      dof rx ry rz
   end
   begin
      id 20
      name RightHand_dum1
      direction 0.000000 0.000000 0.000000
      length 0.000000
      axis 0.0 0.0 90.0 xyz
   end
   begin
      id 21
      name RightHand_dum2
      direction -1.000000 0.000000 0.000000
      length 3.937000
      axis 0.0 0.0 90.0 xyz
   end
   begin
      id 22
      name RightHandThumb1
      direction 0.000000 0.000000 1.000000
      length 3.937000
      axis 0.0 0.0 90.0 xyz
      dof rx rz ry
   end
   begin
      id 23
      name LeftUpLeg
      direction 0.000000 -1.000000 0.000000
      length 16.346831
      axis 0.0 0.0 0.0 xyz
      dof rx ry rz
   end
   begin
      id 24
      name LeftLeg
      direction 0.000000 -1.000000 0.000000
      length 13.959795
      axis 0.0 0.0 0.0 xyz
      dof rx ry rz
   end
   begin
      id 25
      name LeftFoot
      direction 0.000000 -0.258819 0.965926
      length 5.165550
      axis 15.0 0.0 0.0 xyz
      dof rx ry rz
   end
   begin
      id 26
      name LeftToeBase
      direction 0.000000 0.000000 1.000000
      length 2.952750
      axis 0.0 0.0 0.0 xyz
      dof rx ry rz
   end
   begin
      id 27
      name RightUpLeg
      direction 0.000000 -1.000000 0.000000
      length 16.346831
      axis 0.0 0.0 0.0 xyz
      dof rx ry rz
   end
   begin
      id 28
      name RightLeg
      direction 0.000000 -1.000000 0.000000
      length 13.959795
      axis 0.0 0.0 0.0 xyz
      dof rx ry rz
   end
   begin
      id 29
      name RightFoot
      direction 0.000000 -0.258819 0.965926
      length 5.165550
      axis 15.0 0.0 0.0 xyz
      dof rx ry rz
   end
   begin
      id 30
      name RightToeBase
      direction 0.000000 0.000000 1.000000
      length 2.952750
      axis 0.0 0.0 0.0 xyz
      dof rx ry rz
   end
:hierarchy
   begin
      root Spine_dum LeftUpLeg_dum RightUpLeg_dum
      Spine_dum Spine
      LeftUpLeg_dum LeftUpLeg
      RightUpLeg_dum RightUpLeg
      Spine Spine_dum1 Spine_dum2 Spine_dum3
      Spine_dum1 Head
      Spine_dum2 LeftShoulder
      Spine_dum3 RightShoulder
      LeftShoulder LeftArm
      LeftArm LeftForeArm
      LeftForeArm LeftHand
      LeftHand LeftHand_dum1 LeftHand_dum2
      LeftHand_dum1 LeftHandThumb1
      RightShoulder RightArm
      RightArm RightForeArm
      RightForeArm RightHand
      RightHand RightHand_dum1 RightHand_dum2
      RightHand_dum1 RightHandThumb1
      LeftUpLeg LeftLeg
      LeftLeg LeftFoot
      LeftFoot LeftToeBase
      RightUpLeg RightLeg
      RightLeg RightFoot
      RightFoot RightToeBase
   end

# File created by Blade
# Date/Time:  Tue Jan 27 19:05:02 2015
# Frame Rate: 120.000 fps
#------------------------------------------------------
:FULLY-SPECIFIED
:DEGREES
984
root -2.302868 31.522187 -3.776713 5.005680 5.491810 -0.380793
Spine -4.168172 -5.230347 -2.739901
Head 20.515330 3.292033 3.013306
LeftShoulder -17.448475 16.718847 13.951455
LeftArm 12.208651 -48.319143 -72.047149
LeftForeArm -11.119057 -0.000000 87.734859
LeftHand -10.524053 0.000000 20.059682
LeftHandThumb1 -26.253704 0.000000 33.147579
RightShoulder -12.824883 -3.995129 -11.584963
RightArm 6.491530 -34.036169 84.923283
RightForeArm -24.093479 -0.000000 21.228072
RightHand -14.299042 -0.000000 10.662030
RightHandThumb1 -24.326973 -0.000000 -32.862282
LeftUpLeg -4.377130 -13.126370 -8.708617
LeftLeg 15.721039 -0.000000 -0.000000
LeftFoot -24.760469 22.849762 -12.284132
LeftToeBase 10.298250 -0.000000 -0.000000
RightUpLeg -21.840292 -23.352418 -0.095027
RightLeg 96.391275 -0.000000 -0.000000
RightFoot -14.368807 -4.259255 29.652658
RightToeBase 5.114387 -0.000000 -0.000000
985
root -2.304824 31.519623 -3.778561 4.983006 5.188424 -0.371853
Spine -4.118995 -5.189989 -2.798549
Head 20.558773 3.400475 2.998076
LeftShoulder -17.543697 16.839121 13.831734
LeftArm 11.654613 -48.668811 -71.517750
LeftForeArm -11.463839 -0.000000 87.851754
LeftHand -10.429219 0.000000 20.002598
LeftHandThumb1 -26.253704 0.000000 33.147579
RightShoulder -12.802192 -3.946829 -11.609762
RightArm 6.486581 -34.014597 84.998593
RightForeArm -24.131167 -0.000000 21.488258
RightHand -14.242357 -0.000000 10.594533
RightHandThumb1 -24.326973 -0.000000 -32.862282
LeftUpLeg -4.345533 -13.037726 -8.754212
LeftLeg 15.676596 -0.000000 -0.000000
LeftFoot -24.802666 23.035610 -12.343046
LeftToeBase 10.164231 -0.000000 -0.000000
RightUpLeg -21.846957 -23.470899 -0.046918
RightLeg 96.435215 -0.000000 -0.000000
RightFoot -14.332698 -4.214997 29.638711
RightToeBase 5.099111 -0.000000 -0.000000
986
root -2.306708 31.515447 -3.782122 4.955856 4.910417 -0.373455
Spine -4.052543 -5.156617 -2.835150
Head 20.562130 3.445876 2.969262
LeftShoulder -17.605904 16.960838 13.725515
LeftArm 11.105738 -49.059909 -71.033818
LeftForeArm -11.772784 0.000000 87.978575
LeftHand -10.407299 -0.000000 19.739194
LeftHandThumb1 -26.253704 0.000000 33.147579
RightShoulder -12.815228 -3.894720 -11.658754
RightArm 6.469700 -34.026985 85.079915
RightForeArm -24.194367 -0.000000 21.813778
RightHand -14.283391 -0.000000 10.464586
RightHandThumb1 -24.326973 -0.000000 -32.862282
LeftUpLeg -4.354246 -12.943283 -8.784625
LeftLeg 15.720643 -0.000000 -0.000000
LeftFoot -24.858899 23.189241 -12.378934
LeftToeBase 10.164097 -0.000000 -0.000000
RightUpLeg -21.853228 -23.561811 0.014651
RightLeg 96.454396 -0.000000 -0.000000
RightFoot -14.289796 -4.222425 29.711830
RightToeBase 4.179447 -0.000000 -0.000000
987
root -2.307834 31.511751 -3.785835 4.938867 4.605401 -0.362651
Spine -4.003849 -5.120438 -2.891316
Head 20.550700 3.502308 2.937805
LeftShoulder -17.711113 17.052179 13.558957
LeftArm 10.584708 -49.408800 -70.450831
LeftForeArm -12.157617 -0.000000 88.101592
LeftHand -10.398476 0.000000 19.802187
LeftHandThumb1 -26.253704 0.000000 33.147579
RightShoulder -12.791821 -3.878641 -11.701939
RightArm 6.505025 -34.053204 85.129177
RightForeArm -24.264141 -0.000000 22.110007
RightHand -14.280347 -0.000000 10.351666
RightHandThumb1 -24.326973 -0.000000 -32.862282
LeftUpLeg -4.303086 -12.999693 -8.837498
LeftLeg 15.628534 -0.000000 -0.000000
LeftFoot -24.972281 23.475882 -12.549954
LeftToeBase 10.181356 -0.000000 -0.000000
RightUpLeg -21.876758 -23.545762 0.070896
RightLeg 96.481247 -0.000000 -0.000000
RightFoot -14.280555 -4.214440 29.688949
RightToeBase 4.441790 -0.000000 -0.000000
988
root -2.312608 31.507049 -3.789731 4.901727 4.327878 -0.362829
Spine -3.916805 -5.074729 -2.953016
Head 20.497958 3.497197 2.889809
LeftShoulder -17.800723 17.132142 13.471795
LeftArm 10.060214 -49.716154 -69.948382
LeftForeArm -12.497862 -0.000000 88.227340
LeftHand -10.431831 0.000000 19.580147
LeftHandThumb1 -26.253704 0.000000 33.147579
RightShoulder -12.801088 -3.860270 -11.729456
RightArm 6.512576 -34.035595 85.185689
RightForeArm -24.339446 0.000000 22.449581
RightHand -14.289682 0.000000 10.331867
RightHandThumb1 -24.326973 -0.000000 -32.862282
LeftUpLeg -4.299914 -12.777935 -8.870363
LeftLeg 15.657960 -0.000000 -0.000000
LeftFoot -25.014587 23.611393 -12.489321
LeftToeBase 10.223468 -0.000000 -0.000000
RightUpLeg -21.871043 -23.485086 0.130895
RightLeg 96.501192 -0.000000 -0.000000
RightFoot -14.248245 -4.163424 29.755748
RightToeBase 4.063638 -0.000000 -0.000000
989
root -2.317847 31.502567 -3.796782 4.886255 4.090771 -0.352562
Spine -3.841403 -5.075270 -3.026342
Head 20.433132 3.466187 2.856645
LeftShoulder -17.901050 17.286644 13.350635
LeftArm 9.608378 -50.013720 -69.474639
LeftForeArm -12.851910 -0.000000 88.359108
LeftHand -10.390080 0.000000 19.469723
LeftHandThumb1 -26.253704 0.000000 33.147579
RightShoulder -12.806601 -3.841755 -11.746516
RightArm 6.520073 -34.081387 85.218521
RightForeArm -24.376292 -0.000000 22.822397
RightHand -14.335563 -0.000000 10.281444
RightHandThumb1 -24.326973 -0.000000 -32.862282
LeftUpLeg -4.316054 -12.666431 -8.896256
LeftLeg 15.686346 -0.000000 -0.000000
LeftFoot -25.097198 23.680133 -12.578796
LeftToeBase 10.221442 -0.000000 -0.000000
RightUpLeg -21.903926 -23.441632 0.198951
RightLeg 96.511017 -0.000000 -0.000000
RightFoot -14.234451 -4.126285 29.843825
RightToeBase 4.278335 -0.000000 -0.000000
